<svg xmlns="http://www.w3.org/2000/svg" role="img" aria-label="IKARS" viewBox="0 0 224 56"><defs><linearGradient id="a" x1="2" y1="4" x2="51" y2="53" gradientUnits="userSpaceOnUse"><stop stop-color="#119A9A"/><stop offset="1" stop-color="#087274"/></linearGradient></defs><path fill="url(#a)" d="M5 5.5c6.8 3.9 11 11.3 11 19.3v6.4c0 8-4.2 15.4-11 19.3v-45ZM22 25.5v-7.7C22 10.8 27.7 5 34.8 5H48L27.5 25.5H22Zm0 5v7.7C22 45.2 27.7 51 34.8 51H48L27.5 30.5H22Z"/><g fill="#f7f6ef"><path d="M62.304 40V16.16h4.352V40Z"/><path d="M74.442 40V16.16h4.352v12.416L88.938 16.16h5.472l-9.504 11.264L94.698 40h-5.12l-6.4-10.496-4.384 5.024V40Z"/><path d="m97.44 40 8.224-23.84h5.632L119.52 40h-4.736l-1.696-5.12h-9.216L102.144 40Zm7.68-8.96h6.72l-3.36-10.048Z"/><path d="M125.404 40V16.16h8.864c5.056 0 8.288 2.752 8.288 7.52 0 3.392-1.664 5.792-4.32 6.752L143.708 40h-4.928l-5.856-10.464h-3.168V40Zm4.352-12.64h4.576c2.368 0 3.872-1.44 3.872-3.68 0-2.208-1.504-3.68-3.872-3.68h-4.576Z"/><path d="M158.241 40.384c-4.608 0-8.128-2.432-9.568-6.624l3.616-1.568c.864 2.048 2.816 4.384 6.176 4.384 2.368 0 3.776-1.12 3.776-2.912 0-1.408-.832-2.304-2.496-2.816l-4.576-1.472c-3.712-1.152-5.6-3.424-5.6-6.656 0-4.256 3.072-6.72 7.968-6.72 4.384 0 7.584 2.24 8.96 5.76l-3.584 1.6c-.8-2.208-2.816-3.744-5.376-3.744-2.208 0-3.68 1.152-3.68 2.944 0 1.344.864 2.304 2.592 2.848l4.384 1.376c3.776 1.216 5.696 3.392 5.696 6.624 0 4.288-3.2 7.006-8.288 7.006Z"/></g></svg>
